<svg width="18" height="5" viewBox="0 0 18 5" fill="none" xmlns="http://www.w3.org/2000/svg">
<g id="Group">
<path id="Vector" d="M14.959 0.09375C13.6321 0.09375 12.5527 1.17587 12.5527 2.5C12.5527 3.82413 13.6307 4.90625 14.959 4.90625C16.2845 4.90625 17.3652 3.8255 17.3652 2.5C17.3652 1.1745 16.2845 0.09375 14.959 0.09375ZM14.959 3.53125C14.3897 3.53125 13.9277 3.06925 13.9277 2.5C13.9277 1.93212 14.3911 1.46875 14.959 1.46875C15.5269 1.46875 15.9902 1.93075 15.9902 2.5C15.9902 3.06787 15.5282 3.53125 14.959 3.53125ZM8.77148 0.09375C7.44323 0.09375 6.36523 1.17587 6.36523 2.5C6.36523 3.82413 7.44461 4.90625 8.77148 4.90625C10.0984 4.90625 11.1777 3.8255 11.1777 2.5C11.1777 1.1745 10.0997 0.09375 8.77148 0.09375ZM8.77148 3.53125C8.20223 3.53125 7.74023 3.06925 7.74023 2.5C7.74023 1.93212 8.20361 1.46875 8.77148 1.46875C9.33936 1.46875 9.80273 1.93075 9.80273 2.5C9.80273 3.06787 9.34073 3.53125 8.77148 3.53125ZM2.58398 0.09375C1.25711 0.09375 0.177734 1.17587 0.177734 2.5C0.177734 3.82413 1.25711 4.90625 2.58398 4.90625C3.90948 4.90625 4.99023 3.8255 4.99023 2.5C4.99023 1.1745 3.90811 0.09375 2.58398 0.09375ZM2.58398 3.53125C2.01473 3.53125 1.55273 3.06925 1.55273 2.5C1.55273 1.93212 2.01611 1.46875 2.58398 1.46875C3.15186 1.46875 3.61523 1.93075 3.61523 2.5C3.61523 3.06787 3.15323 3.53125 2.58398 3.53125Z" fill="#F9F9F9"/>
</g>
</svg>
