<svg width="17" height="17" viewBox="0 0 17 17" fill="none" xmlns="http://www.w3.org/2000/svg">
<path id="Vector" d="M13.7217 17C13.0133 17 12.4113 16.7521 11.9154 16.2563C11.4196 15.7604 11.1717 15.1583 11.1717 14.45C11.1717 14.3508 11.1788 14.248 11.1929 14.1414C11.2071 14.0349 11.2283 13.9394 11.2567 13.855L5.26418 10.37C5.02335 10.5825 4.75418 10.7491 4.45668 10.8698C4.15918 10.9905 3.84751 11.0506 3.52168 11.05C2.81335 11.05 2.21126 10.8021 1.71543 10.3063C1.2196 9.81042 0.97168 9.20833 0.97168 8.5C0.97168 7.79167 1.2196 7.18958 1.71543 6.69375C2.21126 6.19792 2.81335 5.95 3.52168 5.95C3.84751 5.95 4.15918 6.01035 4.45668 6.13105C4.75418 6.25175 5.02335 6.41807 5.26418 6.63L11.2567 3.145C11.2283 3.06 11.2071 2.96452 11.1929 2.85855C11.1788 2.75258 11.1717 2.64973 11.1717 2.55C11.1717 1.84167 11.4196 1.23958 11.9154 0.74375C12.4113 0.247917 13.0133 0 13.7217 0C14.43 0 15.0321 0.247917 15.5279 0.74375C16.0238 1.23958 16.2717 1.84167 16.2717 2.55C16.2717 3.25833 16.0238 3.86042 15.5279 4.35625C15.0321 4.85208 14.43 5.1 13.7217 5.1C13.3958 5.1 13.0842 5.03993 12.7867 4.9198C12.4892 4.79967 12.22 4.63307 11.9792 4.42L5.98668 7.905C6.01501 7.99 6.03626 8.08577 6.05043 8.1923C6.0646 8.29883 6.07168 8.4014 6.07168 8.5C6.07168 8.59917 6.0646 8.70202 6.05043 8.80855C6.03626 8.91508 6.01501 9.01057 5.98668 9.095L11.9792 12.58C12.22 12.3675 12.4892 12.2012 12.7867 12.081C13.0842 11.9609 13.3958 11.9006 13.7217 11.9C14.43 11.9 15.0321 12.1479 15.5279 12.6438C16.0238 13.1396 16.2717 13.7417 16.2717 14.45C16.2717 15.1583 16.0238 15.7604 15.5279 16.2563C15.0321 16.7521 14.43 17 13.7217 17ZM13.7217 3.4C13.9625 3.4 14.1645 3.3184 14.3277 3.1552C14.4909 2.992 14.5722 2.79027 14.5717 2.55C14.5717 2.30917 14.4901 2.10715 14.3269 1.94395C14.1637 1.78075 13.9619 1.69943 13.7217 1.7C13.4808 1.7 13.2788 1.7816 13.1156 1.9448C12.9524 2.108 12.8711 2.30973 12.8717 2.55C12.8717 2.79083 12.9533 2.99285 13.1165 3.15605C13.2797 3.31925 13.4814 3.40057 13.7217 3.4ZM3.52168 9.35C3.76251 9.35 3.96453 9.2684 4.12773 9.1052C4.29093 8.942 4.37225 8.74027 4.37168 8.5C4.37168 8.25917 4.29008 8.05715 4.12688 7.89395C3.96368 7.73075 3.76195 7.64943 3.52168 7.65C3.28085 7.65 3.07883 7.7316 2.91563 7.8948C2.75243 8.058 2.67111 8.25973 2.67168 8.5C2.67168 8.74083 2.75328 8.94285 2.91648 9.10605C3.07968 9.26925 3.28141 9.35057 3.52168 9.35ZM13.7217 15.3C13.9625 15.3 14.1645 15.2184 14.3277 15.0552C14.4909 14.892 14.5722 14.6903 14.5717 14.45C14.5717 14.2092 14.4901 14.0072 14.3269 13.844C14.1637 13.6808 13.9619 13.5994 13.7217 13.6C13.4808 13.6 13.2788 13.6816 13.1156 13.8448C12.9524 14.008 12.8711 14.2097 12.8717 14.45C12.8717 14.6908 12.9533 14.8928 13.1165 15.0561C13.2797 15.2192 13.4814 15.3006 13.7217 15.3Z" fill="#737373"/>
</svg>
